<?xml version="1.0" ?><!DOCTYPE svg  PUBLIC '-//W3C//DTD SVG 1.1//EN'  'http://www.w3.org/Graphics/SVG/1.1/DTD/svg11.dtd'><svg height="512px" style="enable-background:new 0 0 512 512;" version="1.1" viewBox="0 0 512 512" width="512px" xml:space="preserve" xmlns="http://www.w3.org/2000/svg" xmlns:xlink="http://www.w3.org/1999/xlink"><g id="A_-_103_x2C__Avatar_x2C__Education_x2C__graduate_x2C__graduation_x2C__scholar"><g><polygon points="251.723,409.313 230.282,380.144 225.159,384.821 243.186,417.729   "/><path d="M256.391,288.009c-12.002,0-24.099,1.7-36.005,5.014c-2.039,4.789-3.073,9.965-3.073,15.41    c0,19.95,13.936,58.78,39.481,58.78c25.572,0,39.522-38.83,39.522-58.78c0-5.282-1.063-10.427-3.161-15.317    C280.859,289.74,268.502,288.009,256.391,288.009z"/><polygon points="286.787,384.752 281.686,380.136 260.411,409.242 267.762,416.096   "/><path d="M271.278,422.947c-0.513,0.844-1.378,1.411-2.354,1.546c-0.15,0.021-0.301,0.031-0.449,0.031    c-0.052,0-0.102-0.012-0.151-0.015c-0.095-0.004-0.188-0.014-0.282-0.026c-0.131-0.018-0.259-0.043-0.386-0.076    c-0.092-0.023-0.181-0.047-0.269-0.078c-0.137-0.048-0.266-0.109-0.395-0.175c-0.07-0.036-0.143-0.065-0.21-0.106    c-0.193-0.116-0.377-0.248-0.544-0.404l-10.129-9.444l-11.41,11.25c-0.171,0.169-0.36,0.311-0.56,0.436    c-0.064,0.041-0.132,0.069-0.199,0.105c-0.14,0.075-0.282,0.144-0.431,0.198c-0.083,0.03-0.167,0.052-0.251,0.075    c-0.142,0.039-0.285,0.069-0.431,0.088c-0.09,0.013-0.178,0.022-0.27,0.027c-0.054,0.002-0.106,0.016-0.161,0.016    c-0.158,0-0.316-0.013-0.476-0.035c-1.018-0.149-1.906-0.767-2.4-1.669l-19.963-36.443l-46.55,18.313v10.572v47.377h22.509    v-36.723c0-1.812,1.469-3.28,3.28-3.28c1.812,0,3.28,1.469,3.28,3.28v36.536h107.84v-36.536c0-1.812,1.468-3.28,3.279-3.28    c1.813,0,3.28,1.469,3.28,3.28v36.723h22.56v-47.377v-10.572l-46.668-18.359L271.278,422.947z"/><path d="M233.748,283.328c1.476-0.243,2.953-0.466,4.432-0.662c0.104-0.014,0.207-0.025,0.31-0.038    c1.414-0.186,2.827-0.352,4.241-0.493c0.114-0.012,0.227-0.02,0.341-0.03c4.452-0.433,8.907-0.668,13.349-0.668    c12.108,0,24.414,1.634,36.631,4.82v-8.294v-9.822c-10.979-4.217-21.824-6.635-32.339-7.224c-1.448-0.069-2.895-0.107-4.337-0.107    c-12.047,0-24.202,2.45-36.163,7.287v9.866v8.269c4.484-1.188,8.995-2.154,13.52-2.901    C233.737,283.329,233.742,283.328,233.748,283.328z"/><polygon points="386.609,64.96 347.775,47.492 326.711,47.492 326.711,82.43 347.775,82.43   "/><rect height="34.938" width="213.965" x="106.186" y="47.492"/><rect height="34.938" width="11.576" x="88.05" y="47.492"/><path d="M51.688,82.43h29.802V47.492H51.688c-4.376,0-7.936,3.56-7.936,7.935v19.067C43.752,78.87,47.312,82.43,51.688,82.43z"/><path d="M43.752,111.421v89.052h31.291V186.65v-51.218c0-1.812,1.468-3.28,3.28-3.28h355.354c1.812,0,3.28,1.468,3.28,3.28v23.729    h31.291v-47.74H43.752z"/><rect height="10.542" width="89.38" x="81.603" y="189.93"/><polygon points="400.315,165.72 373.15,200.473 468.248,200.473 468.248,165.72 433.677,165.72   "/><path d="M193.357,260.416l20.295,11.838v-6.346c0-0.163,0.012-0.324,0.036-0.482c0.007-0.05,0.023-0.098,0.033-0.147    c0.021-0.106,0.041-0.214,0.071-0.317c0.017-0.055,0.042-0.105,0.061-0.159c0.034-0.095,0.066-0.19,0.108-0.281    c0.026-0.056,0.06-0.106,0.089-0.161c0.046-0.084,0.088-0.169,0.14-0.248c0.035-0.054,0.076-0.1,0.113-0.15    c0.056-0.075,0.11-0.153,0.172-0.224c0.042-0.048,0.09-0.09,0.135-0.134c0.066-0.067,0.13-0.135,0.201-0.195    c0.051-0.043,0.106-0.079,0.159-0.118c0.074-0.056,0.146-0.113,0.226-0.163c0.058-0.035,0.121-0.064,0.181-0.096    c0.075-0.041,0.146-0.086,0.225-0.121c13.012-5.771,26.5-8.699,40.091-8.699c1.829,0,3.669,0.058,5.517,0.164    c12.023,0.604,24.224,3.45,36.336,8.488c0.004,0.002,0.01,0.004,0.014,0.006h0.002c0.01,0.005,0.021,0.009,0.03,0.013    c0.079,0.033,0.15,0.075,0.224,0.113c0.067,0.034,0.137,0.063,0.201,0.102c0.076,0.046,0.145,0.1,0.217,0.151    c0.06,0.043,0.123,0.081,0.18,0.128c0.068,0.056,0.129,0.12,0.191,0.182c0.052,0.049,0.107,0.096,0.156,0.149    c0.059,0.064,0.109,0.138,0.164,0.207c0.043,0.057,0.091,0.11,0.131,0.169c0.05,0.074,0.09,0.155,0.133,0.232    c0.034,0.062,0.072,0.119,0.104,0.183c0.041,0.084,0.068,0.173,0.102,0.261c0.023,0.063,0.053,0.122,0.072,0.187    c0.031,0.1,0.05,0.203,0.07,0.307c0.012,0.055,0.029,0.11,0.038,0.166c0.024,0.162,0.038,0.325,0.038,0.491v6.346l20.295-11.838    l-63.255-34.06L193.357,260.416z"/><path d="M364.824,200.473l15.05-19.253l16.259-20.799c0.467-0.597,1.119-1.007,1.842-1.175c0.24-0.056,0.49-0.085,0.742-0.085    h31.68v-20.449H81.603v44.659h92.66c1.811,0,3.28,1.469,3.28,3.28v13.822H364.824z"/><path d="M174.263,207.032h-95.94H43.752v206.821h122.694v-9.527c0-1.348,0.825-2.559,2.08-3.052l50.753-19.967l9.273-8.468    c0.688-0.628,1.607-0.936,2.534-0.842c0.926,0.091,1.77,0.57,2.321,1.321l22.631,30.788l22.5-30.781    c0.547-0.75,1.39-1.233,2.313-1.327c0.924-0.097,1.845,0.206,2.535,0.829l9.369,8.477l50.76,19.97    c1.254,0.493,2.08,1.704,2.08,3.052v9.527h122.652V207.032H366.424H174.263z M333.389,289.931    c-0.646,0.687-1.517,1.032-2.39,1.032c-0.806,0-1.612-0.295-2.247-0.892l-4.01-3.772l-4.017,3.774    c-0.634,0.595-1.44,0.89-2.245,0.89c-0.873,0-1.745-0.347-2.391-1.034c-1.241-1.319-1.176-3.396,0.145-4.636l5.229-4.915v-13.277    l-21.853,12.747v10.734c0,0.259-0.031,0.514-0.09,0.76c2.225,5.469,3.354,11.205,3.354,17.091c0,22.803-15.826,65.34-46.082,65.34    c-30.228,0-46.041-42.537-46.041-65.34c0-5.88,1.054-11.499,3.11-16.756c-0.125-0.35-0.21-0.714-0.21-1.095v-10.734    l-28.655-16.714c-1.025-0.598-1.647-1.702-1.627-2.89c0.021-1.187,0.68-2.27,1.725-2.832l70.002-37.669    c0.971-0.522,2.138-0.522,3.109,0.001l69.961,37.669c1.045,0.563,1.703,1.646,1.724,2.832s-0.602,2.291-1.628,2.889l-0.24,0.141    v17.105l5.224,4.914C334.566,286.535,334.63,288.61,333.389,289.931z"/></g></g><g id="Layer_1"/></svg>