<svg version="1.1" xmlns="http://www.w3.org/2000/svg" xmlns:xlink="http://www.w3.org/1999/xlink" x="0px" y="0px" viewBox="0 0 1343 506" style="enable-background:new 0 0 1343 506;" xml:space="preserve">
<style>
    .st0{fill:#000;}
    .st1{fill:none;stroke:#fff;stroke-width:5;stroke-linecap:round;stroke-linejoin:round;stroke-miterlimit:10;}
    .st2{fill:#fff;}
    .st3{fill:#fff;}
    .st4{fill:none;stroke:#fff;stroke-width:5;stroke-miterlimit:10;}
 
    svg {

        max-width: 800px;
        margin: 0 auto;
        background: #000;
    }

    @keyframes rotate_one {
        6%{
            transform: translate(40px, 20px);
        }
        12%{
            transform: translate(70px, 70px);
        }
        18%{
            transform: translate(95px, 140px);
        }
        24%{
            transform: translate(100px, 210px);
        }
        30%{
            transform: translate(100px, 290px);
        }
        36%{
            transform: translate(85px, 390px);
        }
        42%{
            transform: translate(50px, 460px);
        }
        48%{
            transform: translate(0px, 480px);
        }
        54%{
            transform: translate(-50px, 460px);
        }
        60%{
            transform: translate(-85px, 390px);
        }
        66%{
            transform: translate(-100px, 290px);
        }
        72%{
            transform: translate(-100px, 210px);
        }
        78%{
            transform: translate(-95px, 140px);
        }
        84%{
            transform: translate(-70px, 70px);
        }
        90%{
            transform: translate(-40px, 20px);
        }
        96%{
            transform: translate(0px, 0px);
        }
        100%{
            transform: translate(0px, 0px);
        }
    }

    .sub_two circle:nth-of-type(1) {

    	animation: rotate_one 2s linear infinite;
    }

    .sub_one circle:nth-of-type(1) {

    	animation: rotate_one 3s linear infinite;
    }

    @keyframes rotate_two {
        7.5%{
            transform: translate(50px, -60px);
        }
        15%{
            transform: translate(90px, -75px);
        }
        22.5%{
            transform: translate(150px, -90px);
        }
        30%{
            transform: translate(260px, -100px);
        }
        37%{
            transform: translate(330px, -90px);
        }
        44%{
            transform: translate(420px, -65px);
        }
        51%{
            transform: translate(480px, 0px);
        }
        59%{
        	transform: translate(420px, 75px);
        }
        66%{
            transform: translate(330px, 100px);
        }
        73%{
            transform: translate(260px, 110px);
        }
        80%{
            transform: translate(150px, 100px);
        }
        87%{
            transform: translate(90px, 85px);
        }
        95%{
            transform: translate(50px, 70px);
        }
        100%{
            transform: translate(0px, 0px);
        }
    }

    .sub_one circle:nth-of-type(2) {

        animation: rotate_two 4s linear infinite;
    }

    .sub_two circle:nth-of-type(2) {

        animation: rotate_two 2s linear infinite;
    }

   .sub_two {

    	transform-origin: 260.5px 260px;
    	transform: rotate(45deg);
    }

    @keyframes grow {

    	100% {

    		transform: scale(1) rotate(180deg);
    	}
    }

    .feat {

        transform-origin: 260.5px 260px;
        transform: scale(0);
        animation: grow 1.75s cubic-bezier(.74,.02,.36,.97) forwards;
    }

    @keyframes fade_one {

    	100% {

    		opacity: .33;
    		transform: scale(1);
    	}
    }

    .sub_three path:nth-of-type(1) {
 
        opacity: 0;
        transform-origin: 260.5px 260px;
        transform: scale(0.25);
        animation: fade_one 1s 1s cubic-bezier(.74,.02,.36,.97) forwards;
    }

    @keyframes fade_two {

    	100% {

    		opacity: .66;
    		transform: scale(1);
    	}
    }

    .sub_three path:nth-of-type(2) {
 
        opacity: 0;
        transform-origin: 260.5px 260px;
        transform: scale(0.25);
        animation: fade_two 1s 1.15s cubic-bezier(.74,.02,.36,.97) forwards;
    }

    @keyframes fade_three {

    	100% {

    		opacity: 1;
    		transform: scale(1);
    	}
    }

    .sub_three path:nth-of-type(3) {
 
        opacity: 0;
        transform-origin: 260.5px 260px;
        transform: scale(0.25);
        animation: fade_three 1s 1.3s cubic-bezier(.74,.02,.36,.97) forwards;
    }

    @keyframes offset {

    	100% {

    		stroke-dashoffset: 0;
    	}
    }

    .sub_four rect:nth-of-type(1) {

        stroke-dasharray: 2400;
        stroke-dashoffset: 2400;
        animation: offset 2s 2.3s cubic-bezier(.74,.02,.36,.97) forwards;
    }

    @keyframes grow_two {

    	100% {

    		transform: scale(1, 1);
    	}
    }

    .stripes rect:nth-of-type(1) {

    	transform-origin: 373px 159px;
    	transform: scale(0, 1);
    	animation: grow_two 1.2s 2s cubic-bezier(.74,.02,.36,.97) forwards;
    }

    .stripes rect:nth-of-type(2) {

    	transform-origin: 373px 159px;
    	transform: scale(0, 1);
    	animation: grow_two 1.2s 2.1s cubic-bezier(.74,.02,.36,.97) forwards;
    }

    .stripes rect:nth-of-type(3) {

    	transform-origin: 373px 159px;
    	transform: scale(0, 1);
    	animation: grow_two 1.2s 2.2s cubic-bezier(.74,.02,.36,.97) forwards;
    }

    @keyframes fade_in {

    	100% {

    		opacity: 1;
    	}
    }

    .sub_five path:nth-of-type(1) {

    	opacity: 0;
    	animation: fade_in 1s 3s linear forwards;
    }

    .sub_five path:nth-of-type(2) {

    	opacity: 0;
    	animation: fade_in 1s 3.05s linear forwards;
    }

    .sub_five path:nth-of-type(3) {

    	opacity: 0;
    	animation: fade_in 1s 3.1s linear forwards;
    }

    .sub_five path:nth-of-type(4) {

    	opacity: 0;
    	animation: fade_in 1s 3.15s linear forwards;
    }

    .sub_five path:nth-of-type(5) {

    	opacity: 0;
    	animation: fade_in 1s 3.2s linear forwards;
    }

    .sub_five path:nth-of-type(6) {

    	opacity: 0;
    	animation: fade_in 1s 3.25s linear forwards;
    }

    .sub_six {

    	opacity: 0;
    	animation: fade_in 1s 4.25s linear forwards;
    }
</style>
<g class="feat">
    <g class="sub_one">
        <ellipse class="st1" cx="260.5" cy="260" rx="107" ry="243"/>
        <ellipse class="st1" cx="258.5" cy="261" rx="243" ry="107"/>
        <circle class="st2" cx="262.5" cy="18" r="18"/>
        <circle class="st2" cx="18.5" cy="256" r="18"/>
    </g>
    <g class="sub_two">
        <ellipse class="st1" cx="260.5" cy="260" rx="107" ry="243"/>
        <ellipse class="st1" cx="258.5" cy="261" rx="243" ry="107"/>
        <circle class="st2" cx="262.5" cy="18" r="18"/>
        <circle class="st2" cx="18.5" cy="256" r="18"/>
    </g>
</g>
<g class="sub_three">
    <path class="st3" d="M229.3,183.3c3.1-1.9,5.9-4.5,9.6-5.1c5,0.4,10.1,3.6,11.1,8.8c-0.5,3.5-2.7,6.5-3.7,9.9    c6.3,9.3,11.2,19.4,16.9,29.1c14.3,0.1,28.6,0.1,42.9,0c3.5,0.1,7.1,0.6,10.6,1.4c4.1,2.3,8.8,5.1,10,10.1    c2.1,6.3-0.6,12.9-4.3,17.9c-8.1,11-14.4,23.1-22.1,34.3c-0.6-0.3-1.8-1-2.4-1.3c0.8,0.6,1.6,1.1,2.4,1.7    c-2.3,4.1-4.7,8.5-8.8,11.2c-3.2,2.9-7.4,4.1-11.4,5.4c5.3,0.1,10.7-0.3,16,0.2c2.3,1.3,5.2,2.7,5.8,5.5c0.3,1.8,0.1,3.5,0.3,5.3    c-0.5,0.3-1.4,0.8-1.9,1c3.5,0.2,7.3-0.2,10.4,1.8c2.4,1.5,5.8,2.4,6.6,5.6c1.5,4.9,0.4,10.8-3.7,14.1c-2.5,1.3-5.4,1.7-8.2,1.8    c-22-0.1-44,0-66,0c-4.1-0.1-8.3,0.3-12.3-0.5c-3.6-0.4-5.8-3.9-7.6-6.7c-0.5-3.4-1-7.4,1.4-10.2c3.6-3.6,8.4-6,13.6-5.8    c0.2-2.5,0-5,0-7.5c1.5-3,5.1-3.5,8-4.4c4.7-0.6,9.4,0,14.2-0.3c-3-1.8-6.7-2.2-9.6-4.4c-7.4-5.2-11-13.8-16.2-20.9    c-6.4-10.8-14-20.9-19.9-32.1c-1.3-4.9-1.9-10.9,1.3-15.3c1.7-3.5,5.8-4.3,8.7-6.4c6.2-2.6,13.1-1.4,19.6-1.8    c-3.4-6.8-7.7-13.1-11.5-19.7c-4.3,1.2-9.9,0.6-12.3-3.6c-2.1-2.2-2.1-5.6-1.4-8.3C218.6,189.3,224.3,186.5,229.3,183.3z     M220.2,203.3 M236.3,208.2 M315.2,228.2 M312.3,230.2 M217.3,257.3 M313.3,325.2 M312.3,337.3"/>
    <path class="st3" d="M229.3,183.3c3.1-1.9,5.9-4.5,9.6-5.1c5,0.4,10.1,3.6,11.1,8.8c-0.5,3.5-2.7,6.5-3.7,9.9    c6.3,9.3,11.2,19.4,16.9,29.1c14.3,0.1,28.6,0.1,42.9,0c3.5,0.1,7.1,0.6,10.6,1.4c4.1,2.3,8.8,5.1,10,10.1    c2.1,6.3-0.6,12.9-4.3,17.9c-8.1,11-14.4,23.1-22.1,34.3c-0.6-0.3-1.8-1-2.4-1.3c0.8,0.6,1.6,1.1,2.4,1.7    c-2.3,4.1-4.7,8.5-8.8,11.2c-3.2,2.9-7.4,4.1-11.4,5.4c5.3,0.1,10.7-0.3,16,0.2c2.3,1.3,5.2,2.7,5.8,5.5c0.3,1.8,0.1,3.5,0.3,5.3    c-0.5,0.3-1.4,0.8-1.9,1c3.5,0.2,7.3-0.2,10.4,1.8c2.4,1.5,5.8,2.4,6.6,5.6c1.5,4.9,0.4,10.8-3.7,14.1c-2.5,1.3-5.4,1.7-8.2,1.8    c-22-0.1-44,0-66,0c-4.1-0.1-8.3,0.3-12.3-0.5c-3.6-0.4-5.8-3.9-7.6-6.7c-0.5-3.4-1-7.4,1.4-10.2c3.6-3.6,8.4-6,13.6-5.8    c0.2-2.5,0-5,0-7.5c1.5-3,5.1-3.5,8-4.4c4.7-0.6,9.4,0,14.2-0.3c-3-1.8-6.7-2.2-9.6-4.4c-7.4-5.2-11-13.8-16.2-20.9    c-6.4-10.8-14-20.9-19.9-32.1c-1.3-4.9-1.9-10.9,1.3-15.3c1.7-3.5,5.8-4.3,8.7-6.4c6.2-2.6,13.1-1.4,19.6-1.8    c-3.4-6.8-7.7-13.1-11.5-19.7c-4.3,1.2-9.9,0.6-12.3-3.6c-2.1-2.2-2.1-5.6-1.4-8.3C218.6,189.3,224.3,186.5,229.3,183.3z     M220.2,203.3 M236.3,208.2 M315.2,228.2 M312.3,230.2 M217.3,257.3 M313.3,325.2 M312.3,337.3"/>
    <path class="st3" d="M229.3,183.3c3.1-1.9,5.9-4.5,9.6-5.1c5,0.4,10.1,3.6,11.1,8.8c-0.5,3.5-2.7,6.5-3.7,9.9    c6.3,9.3,11.2,19.4,16.9,29.1c14.3,0.1,28.6,0.1,42.9,0c3.5,0.1,7.1,0.6,10.6,1.4c4.1,2.3,8.8,5.1,10,10.1    c2.1,6.3-0.6,12.9-4.3,17.9c-8.1,11-14.4,23.1-22.1,34.3c-0.6-0.3-1.8-1-2.4-1.3c0.8,0.6,1.6,1.1,2.4,1.7    c-2.3,4.1-4.7,8.5-8.8,11.2c-3.2,2.9-7.4,4.1-11.4,5.4c5.3,0.1,10.7-0.3,16,0.2c2.3,1.3,5.2,2.7,5.8,5.5c0.3,1.8,0.1,3.5,0.3,5.3    c-0.5,0.3-1.4,0.8-1.9,1c3.5,0.2,7.3-0.2,10.4,1.8c2.4,1.5,5.8,2.4,6.6,5.6c1.5,4.9,0.4,10.8-3.7,14.1c-2.5,1.3-5.4,1.7-8.2,1.8    c-22-0.1-44,0-66,0c-4.1-0.1-8.3,0.3-12.3-0.5c-3.6-0.4-5.8-3.9-7.6-6.7c-0.5-3.4-1-7.4,1.4-10.2c3.6-3.6,8.4-6,13.6-5.8    c0.2-2.5,0-5,0-7.5c1.5-3,5.1-3.5,8-4.4c4.7-0.6,9.4,0,14.2-0.3c-3-1.8-6.7-2.2-9.6-4.4c-7.4-5.2-11-13.8-16.2-20.9    c-6.4-10.8-14-20.9-19.9-32.1c-1.3-4.9-1.9-10.9,1.3-15.3c1.7-3.5,5.8-4.3,8.7-6.4c6.2-2.6,13.1-1.4,19.6-1.8    c-3.4-6.8-7.7-13.1-11.5-19.7c-4.3,1.2-9.9,0.6-12.3-3.6c-2.1-2.2-2.1-5.6-1.4-8.3C218.6,189.3,224.3,186.5,229.3,183.3z     M220.2,203.3 M236.3,208.2 M315.2,228.2 M312.3,230.2 M217.3,257.3 M313.3,325.2 M312.3,337.3"/>
</g>
<g class="sub_four">
    <rect x="373" y="159" class="st4" width="966.5" height="205"/>
</g>
<g class="stripes">
    <rect opacity=".33" x="373" y="159" class="st3" width="635.3" height="203.9"/>
    <rect opacity=".66" x="373" y="159" class="st3" width="635.3" height="203.9"/>
    <rect opacity="1" x="373" y="159" class="st3" width="635.3" height="203.9"/>
</g>
<g class="sub_five">
	<path class="st0" d="M429.3,207.3c11.1,0,22.2,0,33.3,0c2.8,10.4,6.8,20.5,10.4,30.7c2.9,9.2,6.3,18.2,9.7,27.2
		c2-11.3,4.9-22.4,6.9-33.7c1.3-8.1,3.3-16.1,4.7-24.2c10.8,0,21.6,0.1,32.4-0.1c-2.7,6.7-2.7,14.1-4.6,21
		c-6.1,28.9-12.6,57.8-18.3,86.8c-9.3,0.2-18.5,0-27.8,0.1c-1.7,0-3.4,0.3-5.1,0.7c-3.9-13.9-8.7-27.6-13.2-41.3
		c-2.5-6.2-3.5-12.9-6.5-18.8c-4.3,19.7-8.7,39.5-12.5,59.3c-10.5,0.7-21.2-0.5-31.7,0.7c5.2-23.3,8.9-46.9,14.5-70
		C424.1,232.7,426.9,220,429.3,207.3z"/>
    <path class="st0" d="M535.1,237.2c10-0.4,20.1-0.1,30.2-0.2c-0.6,7-3,13.7-3.9,20.7c-1.8,8.8-4.3,17.5-5.5,26.4
		c-0.5,3.8,2.1,7.3,5.8,8.2c4,1.5,8.5-0.3,11.5-3c4.1-5.6,5.6-12.6,6.8-19.4c1.1-6.4,4.2-12.4,4.4-18.9c0.5-4.7,1.8-9.3,2.8-13.9
		c9.9-0.2,19.8-0.2,29.8,0c-4.4,22.8-9.1,45.4-13.9,68.1c-0.6,3.2-1.2,6.4-1.6,9.6c-9.9,0.3-19.8,0.1-29.7,0.1
		c0.8-3.1,1.7-6.1,2.3-9.3c-3.1,2.4-5.5,5.7-9.2,7.4c-5.3,2.4-11.1,4.5-17.1,3.9c-6.8-0.7-14.7-1.8-19.2-7.5
		c-3.7-3.8-3.9-9.5-4.5-14.4c0.7-16.2,8.2-31.2,9.4-47.3C534.3,244.2,534.5,240.6,535.1,237.2z"/>
	<path class="st0" d="M633.4,207.2c31.1,0,62.2,0.2,93.2-0.1c-2.7,9.2-4,18.8-5.8,28.3c-5.6-0.9-11.2-0.3-16.8-0.4
		c-4.3,0.1-8.5-0.3-12.8,0.2c-1.2,0.8-1,2.6-1.3,3.9c-4.7,25.3-11.1,50.3-15.4,75.7c-11.4,0.7-22.9,0.1-34.3,0.3
		c0.9-1.9,1.8-3.8,2-5.9c3-17.5,7.4-34.8,10.7-52.3c1.3-7.2,3.5-14.2,4-21.5c-9.7-0.7-19.3-0.1-29-0.3
		C629.5,225.6,631.9,216.5,633.4,207.2z"/>
	<path class="st0" d="M725.5,240.7c9.6-3.9,20.2-6.6,30.6-4.7c11,1,21.8,6.8,27.3,16.7c2.7,4.4,3.6,9.6,4.3,14.6
			c0.5,5.2-0.8,10.3-1.1,15.4c-18.6,0.2-37.2,0-55.8,0.1c-0.1,5.2,1.2,11.6,6.4,14.1c3.7,0.5,7.7,1,11.3-0.2c2.9-0.9,4-5,7.4-4.6
			c9.3-0.1,18.5-0.1,27.8,0.1c-3.3,4.4-4.5,10.1-8.6,14c-6.8,7-16.8,9.3-26,10.9c-8.1,0.2-16.4,0.4-24.3-1.9
			c-7.5-2.9-15.2-7.4-18.8-14.9c-2.7-4.5-2.3-9.9-3.3-14.9c-0.8-2.7,0.2-5.5,0.3-8.2c0.1-2.2-0.3-4.4,0.5-6.5
			c2.2-6,3.8-12.3,7.5-17.6C715.2,248.2,719.7,243.4,725.5,240.7z M733.8,266.9c8.5,0.3,17,0,25.5,0.2c-0.1-2.7,0.5-5.7-1.3-8
			c-3-4.4-9-4.9-13.8-4C739,257,734.8,261.4,733.8,266.9z"/>
	<path class="st0" d="M807.3,250.2c7.5-9.3,19.3-13.5,30.8-14.9c9.2-0.8,18.7,0,27.4,3.3c5.6,3,11.1,7.3,13.3,13.5
		c2.1,4.9,2.3,10.2,2.2,15.4c-1.6-0.5-3.2-0.9-4.9-0.8c-7.9,0-15.8,0.1-23.7,0c-0.1-1.8,0-3.7-0.4-5.5c-1.8-2.1-3.9-4.7-6.9-4.5
		c-6.9-0.1-13.9,4.9-15.7,11.6c-1.8,5.8-3.6,12.1-2,18.2c1,3.5,3.4,7.4,7.4,7.8c4.1,0.9,9.2-0.5,11.5-4.3c1.3-1.8,2.1-3.9,3.2-5.9
		c9.6-0.7,19.3-0.2,28.9-0.2c-2.3,10.8-7.7,21.8-17.7,27.4c-5.5,3.9-12.5,4.4-19,5.2c-7.6,0.9-15.1-0.6-22.4-2.1
		c-4.2-0.9-7.5-3.6-11-5.9c-3.5-2.2-5.4-6-7.5-9.4c-2.5-4-2.7-8.8-3.4-13.3c-0.5-7.4-0.5-15.2,2.6-22.1
		C801.2,258.8,804.5,254.6,807.3,250.2z"/>
	<path class="st0" d="M903.7,207.4c10.1-0.4,20.2-0.1,30.3-0.2c-2.2,8.7-5.7,17.2-5.7,26.2c-0.7,4.1-1.7,8.2-2.3,12.3
		c3.1-2.5,6-5.2,9.4-7.3c8-4.2,17.5-4.1,26.1-2c3.9,1.7,7.2,4.6,9.9,7.9c2.7,3.9,2.5,9,2.3,13.6c-2.1,19.2-7.2,37.9-11.1,56.8
		c-10,0.2-19.9,0.2-29.9,0c1.5-5.3,2.7-10.7,4.2-16.1c1-3.5,0.4-7.2,1.3-10.7c1.7-7.7,3.5-15.3,4.6-23.1c-1.4-7.4-11.6-7.8-16.1-3.2
		c-4.7,3.5-5.7,9.5-7.2,14.8c-3,12.7-5.3,25.5-7.8,38.3c-10,0.1-19.9,0.1-29.9,0c1.8-16.1,6.8-31.7,9.4-47.6
		c3-13.7,5.3-27.6,8.8-41.1C901,219.9,902.8,213.8,903.7,207.4z"/>
</g>
<g class="sub_six">
    <path class="st3" d="M1052.1,207.8c10.8-0.2,21.6-0.1,32.4-0.1c-1.8,12.8-5.2,25.3-7.6,38c-5.2,22.3-8.9,44.8-13.8,67.2   c-0.2,2.7-3.3,1.9-5.1,2.1c-9.5-0.2-19,0.2-28.5-0.2c2,0.1,3.9-15.5,4.2-17.4c2.3-12.7,4.7-25.4,7.5-38c1.9-8.7,3.7-17.5,5.7-26.2   C1048.9,224.8,1049.7,216,1052.1,207.8z"/>
    <path class="st3" d="M1131.6,239.5c3.8-2,8-3.5,12.3-3.9c2.6-0.3,5.3-0.3,7.9,0c2.4,0.3,5,0.3,7.2,1.4c4.5,2.3,8.8,5.5,10.8,10.2   c3.1,7.3,0.1,15.2-0.8,22.7c-3.2,15-6.1,30-9.1,45c-9.7,0-18.2,0.6-27.9-0.3c1-5.1,2-10.4,2.7-14.9c1-6.2,1.7-12.4,3-18.6   c0.9-4.5,1.8-9.2,1.7-13.8c-0.1-3-0.7-6.7-3.4-8.4c-2.7-1.7-7.7-1-10.3,0.1c-2.4,1.1-4.5,3.3-5.6,5.9c-3.5,8-5.3,16.6-6.8,25.1   c-0.8,4.4-1.6,8.8-2.4,13.2c-0.2,1.3-1.5,10.8-2.4,11.1c-2.4,0.7-5,0.6-7.5,0.6c-7.2-0.1-14.3,0-21.5,0c1.8-12.8,5.2-25.3,7.4-38.1   c2.3-13.3,5.9-26.5,8.3-39.8c9.4-0.3,18.8-0.2,28.2-0.1c-0.2,3.5-1.5,6.7-2.3,10.1c0.2-0.8,3.2-2.6,3.9-3.2   c1.3-1.1,2.7-2.3,4.2-3.2C1130.1,240.4,1130.8,239.9,1131.6,239.5z"/>
    <path class="st3" d="M1191.8,249.8c9.9-10.3,24.4-15.2,38.5-14.5c10.6,0.5,21.6,3.5,28.4,12.3c1.8,2.4,3.2,5.1,4.1,8   c0.3,0.9,2.1,10.7,1.5,10.7c-9.4,0-18.8,0.2-28.1-0.1c-0.4-2.9-0.3-6.4-3-8.3c-4.1-2.5-9.6-1.6-13.5,0.9c-8,4.6-10.4,16.1-9.7,24.6   c0.5,5.7,3.3,12,10,11.8c3.5-0.1,7.1-1,9.3-3.8c1.1-1.3,1.9-2.9,2.7-4.4c0.4-0.7,1.2-2.8,2.1-2.9c8.9-0.3,17.8-0.2,26.7,0   c0.2,0.1-1.1,4.1-1.1,4.4c-3.1,11.5-10.9,20.4-21.9,25.1c-4,1.7-8.4,2.3-12.8,2.7c-4.9,0.5-9.6,0.3-14.5-0.5   c-3.5-0.6-6.9-1.4-10.2-2.7c-6.5-2.6-12.3-7.2-15.8-13.4c-2.8-4.9-3.3-10.1-3.7-15.6C1180,271.5,1184.2,259.8,1191.8,249.8z"/>
    <path class="st3" d="M1272.5,285.5c10.5-0.1,20.6-0.2,30.9-0.5c-1.1,4.5-2.1,9.1-3.1,13.7c-0.5,2.4-1,4.9-1.6,7.3   c-0.5,2-1.2,4-1.5,6c-0.3,2-1,3-3.1,3c-3,0-6.1,0-9.1,0c-6.1,0-12.2,0-18.3,0C1268.5,305.1,1270.6,295.3,1272.5,285.5z"/>
</g>
</svg>