<?xml version="1.0" ?><!DOCTYPE svg  PUBLIC '-//W3C//DTD SVG 1.1//EN'  'http://www.w3.org/Graphics/SVG/1.1/DTD/svg11.dtd'><svg height="512px" style="enable-background:new 0 0 512 512;" version="1.1" viewBox="0 0 512 512" width="512px" xml:space="preserve" xmlns="http://www.w3.org/2000/svg" xmlns:xlink="http://www.w3.org/1999/xlink"><g id="_x36_03_x2C__Api_x2C__application_x2C__developer_x2C__platform_x2C__science"><g><path d="M94.74,75.824h297.283V42.859H94.74V75.824z M392.023,81.996H94.74v347.933    v0.075v13.697h297.283V81.996z M305.923,234.023c1.505-2.533,2.911-5.018,4.165-7.426c8.58-16.533,11.164-29.502,5.695-34.946    c-5.443-5.444-18.415-2.86-34.946,5.72c-2.409,1.255-4.893,2.634-7.427,4.14c1.957,8.454,3.512,17.837,4.617,27.921    c4.814,0.527,9.507,1.155,13.997,1.883C296.893,232.117,301.534,233.02,305.923,234.023z M205.925,330.734    c2.411-1.254,4.892-2.635,7.426-4.14c-1.93-8.454-3.485-17.862-4.59-27.922c-3.811-0.401-7.524-0.878-11.114-1.431    c-5.921-0.878-11.54-1.956-16.807-3.16c-1.506,2.533-2.885,5.018-4.138,7.426c-8.581,16.532-11.164,29.477-5.721,34.947    C176.448,341.897,189.395,339.314,205.925,330.734z M213.828,242.127c1.256-1.305,2.509-2.585,3.79-3.863    c1.278-1.279,2.557-2.535,3.838-3.764c-2.385,0.15-4.743,0.352-7.077,0.552C214.179,237.36,213.979,239.719,213.828,242.127z     M269.171,289.842c-1.279,1.255-2.559,2.534-3.839,3.764c2.384-0.176,4.741-0.352,7.05-0.553c0.225-2.332,0.402-4.691,0.577-7.074    C271.705,287.258,270.45,288.563,269.171,289.842z M238.514,219.071c-6.723-5.368-13.296-10.11-19.618-14.148    c-0.502,2.231-0.953,4.515-1.379,6.873c-0.979,5.368-1.832,11.063-2.485,17.01c4.341-0.376,8.832-0.677,13.397-0.878    C231.792,224.842,235.178,221.881,238.514,219.071z M248.776,227.627c-1.808-1.557-3.589-3.086-5.394-4.592    c-1.781,1.506-3.589,3.035-5.395,4.592c1.806-0.025,3.587-0.025,5.395-0.025C245.187,227.602,246.995,227.602,248.776,227.627z     M284.398,264.053c-1.48-1.807-3.035-3.588-4.59-5.394c0.024,1.781,0.024,3.587,0.024,5.394s0,3.588-0.024,5.395    C281.363,267.641,282.918,265.834,284.398,264.053z M302.511,288.537c-4.039-6.321-8.805-12.895-14.148-19.617    c-2.809,3.361-5.77,6.723-8.855,10.085c-0.2,4.565-0.502,9.056-0.878,13.396C287.159,291.447,295.186,290.143,302.511,288.537z     M273.41,326.595c2.534,1.505,5.018,2.886,7.427,4.14c16.531,8.58,29.503,11.163,34.946,5.721    c5.469-5.471,2.885-18.415-5.695-34.947c-1.254-2.408-2.633-4.893-4.139-7.426c-8.481,1.932-17.862,3.513-27.922,4.591    c-0.929,8.354-2.158,16.257-3.664,23.532C274.063,323.686,273.736,325.165,273.41,326.595z M248.248,309.033    c6.724,5.345,13.322,10.086,19.644,14.15l0.451-2.208c1.405-6.724,2.534-13.999,3.411-21.675    c-4.364,0.376-8.83,0.677-13.396,0.878C254.996,303.264,251.61,306.199,248.248,309.033z M237.987,300.454    c1.806,1.581,3.613,3.11,5.395,4.616c1.805-1.506,3.586-3.035,5.394-4.616c-1.781,0.025-3.589,0.05-5.394,0.05    C241.574,300.504,239.793,300.479,237.987,300.454z M213.326,276.496c2.787,2.984,5.669,5.995,8.656,8.98    c2.96,2.961,5.97,5.846,8.956,8.631c4.089,0.15,8.228,0.225,12.443,0.225c4.215,0,8.379-0.074,12.467-0.225    c2.987-2.785,5.971-5.67,8.956-8.631c2.985-2.985,5.872-5.996,8.63-8.98c0.176-4.09,0.251-8.229,0.251-12.443    s-0.1-8.379-0.251-12.443c-2.758-3.01-5.645-5.996-8.63-8.981c-2.984-2.985-5.969-5.87-8.98-8.63    c-4.064-0.15-8.228-0.226-12.443-0.226c-4.215,0-8.354,0.075-12.443,0.226c-2.986,2.76-5.996,5.645-8.956,8.63    c-2.987,2.985-5.87,5.972-8.656,8.981c-0.151,4.064-0.225,8.229-0.225,12.443S213.175,272.432,213.326,276.496z M202.363,264.053    c1.505,1.781,3.036,3.588,4.618,5.395c-0.024-1.807-0.053-3.588-0.053-5.395s0.028-3.612,0.053-5.394    C205.398,260.465,203.868,262.271,202.363,264.053z M184.25,239.567c4.064,6.298,8.805,12.896,14.15,19.618    c2.835-3.361,5.77-6.723,8.854-10.109c0.228-4.566,0.502-9.032,0.905-13.396C199.604,236.657,191.578,237.962,184.25,239.567z     M176.701,226.598c1.253,2.408,2.632,4.893,4.138,7.426c8.454-1.957,17.863-3.512,27.921-4.615    c0.727-6.523,1.632-12.795,2.709-18.716c0.579-3.161,1.204-6.222,1.881-9.182c-2.534-1.506-5.015-2.885-7.426-4.14    c-16.53-8.58-29.477-11.164-34.944-5.72C165.538,197.096,168.12,210.064,176.701,226.598z M238.514,309.033    c-3.36-2.834-6.723-5.77-10.085-8.854c-4.566-0.201-9.056-0.502-13.397-0.878c0.955,8.529,2.26,16.557,3.864,23.883    C225.218,319.119,231.792,314.378,238.514,309.033z M279.507,249.102c3.086,3.361,6.047,6.723,8.855,10.084    c5.368-6.723,10.109-13.32,14.148-19.644c-3.662-0.777-7.475-1.505-11.463-2.157c-3.991-0.652-8.13-1.203-12.419-1.705    C279.005,240.044,279.307,244.535,279.507,249.102z M265.332,234.476c1.28,1.253,2.56,2.509,3.839,3.788    c1.279,1.278,2.534,2.559,3.763,3.838c-0.149-2.383-0.327-4.741-0.552-7.05C270.073,234.826,267.716,234.65,265.332,234.476z     M248.248,219.071c3.362,2.81,6.749,5.771,10.111,8.856c4.565,0.201,9.031,0.502,13.396,0.878    c-0.978-8.53-2.283-16.558-3.889-23.883C261.569,208.986,254.972,213.729,248.248,219.071z M207.255,279.005    c-3.085-3.362-6.019-6.724-8.854-10.085c-5.345,6.723-10.086,13.296-14.15,19.617c4.517,0.979,9.307,1.857,14.301,2.609    c3.109,0.477,6.321,0.879,9.581,1.255C207.757,288.035,207.455,283.57,207.255,279.005z M217.618,289.842    c-1.281-1.279-2.534-2.584-3.79-3.863c0.151,2.383,0.351,4.742,0.551,7.074c2.334,0.201,4.692,0.402,7.077,0.553    C220.175,292.376,218.896,291.097,217.618,289.842z M232.844,164.457c-0.653-0.652-1.53-1.054-2.507-1.054    c-0.904,0-1.757,0.351-2.385,0.929l-0.1,0.125c-0.626,0.627-1.028,1.505-1.028,2.483c0,0.978,0.375,1.856,1.004,2.483    c0.251,0.251,0.551,0.477,0.853,0.627l0,0l0.051,0.025h0.024c0.727,0.302,0.677,0.276,1.581,0.376    c0.977,0,1.854-0.376,2.507-1.028c0.151-0.15,0.302-0.326,0.426-0.502l0,0l0.026-0.05l0,0l0.074-0.126v-0.025l0.026-0.023    l0.025-0.025l0,0l0.024-0.076h0.026v-0.024v-0.025l0.024-0.024l0.024-0.051l0,0l0.026-0.025v-0.025l0.025-0.023l0,0v-0.051l0,0    l0.024-0.025l0.024-0.05l0,0v-0.025l0,0l0.026-0.05l0,0v-0.051l0.024-0.025l0,0v-0.024v-0.025l0.025-0.025l0,0v-0.024l0.026-0.025    v-0.025v-0.025l0,0v-0.025l0.024-0.023v-0.025v-0.025l0.024-0.025l0,0v-0.025v-0.024v-0.025l0,0l0.025-0.05l0,0v-0.051v-0.025l0,0    l0.026-0.05l0,0v-0.05l0,0v-0.025v-0.024v-0.026h0.025v-0.023v-0.025v-0.025v-0.025v-0.025v-0.024l0,0v-0.025v-0.025v-0.024    l0.024-0.025v-0.025l0,0v-0.051l0,0v-0.049l0,0v-0.025v-0.025v-0.025l0,0v-0.05v-0.05l0,0v-0.051l0,0v-0.025v-0.024v-0.025v-0.024    v-0.025v-0.025l-0.024-0.025v-0.025v-0.023l0,0v-0.025v-0.025v-0.025v-0.075v-0.025    C233.724,165.661,233.371,164.984,232.844,164.457z M239.367,163.403c0.202,0.526,0.377,1.079,0.478,1.655l0.024,0.051v0.025v0.05    l0.051,0.251v0.024l0.024,0.101v0.025v0.025v0.075l0.025,0.175l0.026,0.076l0,0v0.05v0.075l0,0v0.051l0.024,0.074l0,0v0.051v0.074    l0,0v0.051v0.075l0,0v0.051v0.075l0,0l0.024,0.051v0.074l0,0v0.051v0.074l0,0v0.051v0.075v0.126l0,0v0.125l0,0l-0.024,0.101v0.024    v0.102v0.023v0.102v0.024v0.075v0.051l-0.024,0.075v0.024v0.102v0.023l-0.026,0.076v0.05v0.075v0.051l-0.025,0.075v0.05v0.051    l-0.024,0.074v0.051l-0.024,0.051v0.05v0.075l-0.026,0.051v0.075l-0.024,0.024v0.075v0.05l-0.025,0.076v0.025l-0.026,0.1v0.025    l-0.024,0.1l0,0l-0.051,0.101v0.025l-0.024,0.101l0,0l-0.025,0.101v0.024l-0.024,0.102l-0.051,0.1l0,0l-0.025,0.125l0,0    l-0.026,0.1h-0.024l-0.024,0.102v0.024l-0.051,0.101l0,0l-0.025,0.101v0.025l-0.051,0.074v0.026l-0.024,0.074l-0.025,0.051    l-0.026,0.05l-0.025,0.05l-0.024,0.076l-0.024,0.025l-0.026,0.074l-0.025,0.051l-0.024,0.05v0.05l-0.026,0.051l-0.024,0.05    l-0.024,0.051l-0.051,0.05v0.051l-0.049,0.049l-0.026,0.051l-0.024,0.075l-0.025,0.025l-0.026,0.075l-0.024,0.025l-0.024,0.075    l-0.025,0.024l-0.051,0.075v0.026l-0.051,0.074v0.025l-0.049,0.075l-0.026,0.025l-0.049,0.075l0,0l-0.126,0.2l0,0l-0.049,0.075    v0.025l-0.075,0.075l0,0l-0.126,0.2l0,0l-0.074,0.076v0.024l-0.051,0.075l-0.024,0.025l-0.051,0.051l-0.024,0.025l-0.051,0.074    l-0.024,0.025l-0.051,0.05l-0.024,0.025l-0.051,0.075l-0.025,0.025l-0.024,0.05l-0.051,0.025l-0.024,0.05l-0.051,0.051    l-0.149,0.175l-0.026,0.025l-0.049,0.05l-0.151,0.176c-0.501,0.502-1.054,0.928-1.63,1.305h-0.026l-0.175,0.125l0,0l-0.2,0.126    l-0.126,0.05l-0.4,0.227l-0.102,0.05l-0.125,0.05l0,0l-0.1,0.051l0,0l-0.1,0.05l-0.102,0.051l-0.125,0.05l-0.1,0.024l-0.126,0.05    l0,0l-0.1,0.051l-0.1,0.025l-0.126,0.05l-0.1,0.025l-0.125,0.05l-0.102,0.025l-0.125,0.051l-0.125,0.025l-0.102,0.023    l-0.125,0.025l-0.126,0.025l-0.1,0.025l0,0l-0.125,0.025l-0.126,0.024l-0.1,0.025l-0.125,0.024l-0.126,0.025l-0.125,0.025h-0.126    l-0.125,0.025h-0.102l-0.125,0.025h-0.126l-0.125,0.024h-0.126h-0.125h-0.125h-0.126h-0.125h-0.026h-0.024h-0.051h-0.024l0,0    h-0.024h-0.051h-0.024h-0.024l0,0h-0.051h-0.025h-0.026h-0.024l0,0h-0.051h-0.024h-0.076h-0.024h-0.025h-0.026l-0.025-0.024    h-0.049h-0.051l0,0h-0.024h-0.026h-0.049h-0.026l0,0h-0.025l-0.024-0.025h-0.051h-0.025l0,0c-0.375-0.051-0.752-0.101-1.128-0.176    c-2.96,5.996-5.621,13.496-7.828,22.178c7.351,4.615,15.103,10.16,22.98,16.506c7.901-6.346,15.629-11.891,23.004-16.481    c-0.752-2.86-1.505-5.62-2.333-8.204c-5.619-17.762-12.97-28.725-20.671-28.725c-1.028,0-2.032,0.176-3.011,0.553l-1.255,0.602    l0.026,0.025l0.049,0.1l0.026,0.101l0,0l0.024,0.05l0.049,0.125l0.026,0.052l0,0l0.049,0.1V163.403z M337.584,250.029    c0.626-0.627,1.027-1.506,1.027-2.484c0-0.978-0.401-1.855-1.027-2.509c-0.653-0.626-1.53-1.028-2.51-1.028    c-0.953,0-1.856,0.402-2.482,1.028c-0.252,0.276-0.478,0.577-0.653,0.903l-0.275,0.729l-0.024,0.125v0.05l-0.076,0.702    c0,0.979,0.376,1.857,1.004,2.484c0.651,0.652,1.53,1.053,2.508,1.053h0.051h0.025h0.023l0.027-0.024h0.023h0.025h0.026h0.024    h0.024h0.024h0.026h0.024h0.025h0.025h0.025h0.024l0.026-0.025h0.024h0.024h0.024h0.026h0.024l0,0l0.052-0.024l0,0h0.049    l0.075-0.025h0.051l0,0C336.529,250.832,337.106,250.506,337.584,250.029z M340.895,255.297c-1.179,0.879-2.559,1.506-4.063,1.781    h-0.024h-0.051l-0.076,0.025l0,0h-0.075l-0.05,0.025h-0.025h-0.074l-0.025,0.025l-0.201,0.025h-0.023h-0.052h-0.075l0,0    l-0.076,0.023h-0.049h-0.025h-0.076h-0.024h-0.05l-0.15,0.025h-0.051h-0.024h-0.075h-0.025H335.4h-0.075l0,0h-0.075h-0.049h-0.051    h-0.076c-2.658,0-5.067-1.078-6.824-2.834c-1.781-1.757-2.858-4.189-2.858-6.85c0-0.375,0.024-0.777,0.05-1.154    c-4.867-1.956-10.436-3.763-16.583-5.343c-4.615,7.376-10.16,15.103-16.507,23.005c6.347,7.878,11.892,15.629,16.507,22.98    c2.86-0.728,5.595-1.506,8.179-2.334c17.762-5.619,28.75-12.945,28.75-20.646c0-1.656-0.553-3.337-1.605-4.967    C343.378,257.806,342.273,256.552,340.895,255.297z M247.219,370.547c0.979,0.954,2.334,1.557,3.813,1.557    c1.481,0,2.811-0.603,3.789-1.557c0.979-0.978,1.581-2.308,1.581-3.813c0-1.455-0.628-2.811-1.581-3.789    c-0.802-0.777-1.832-1.328-3.009-1.504h-0.026l0,0l-0.225-0.025h-0.026h-0.024l-0.025-0.025h-0.026h-0.024l0,0h-0.051h-0.024l0,0    h-0.025h-0.024h-0.026h-0.024h-0.025l0,0h-0.051h-0.024l0,0h-0.026h-0.049h-0.051c-1.479,0-2.834,0.603-3.813,1.555    c-0.953,0.979-1.555,2.309-1.555,3.789l0.049,0.803l0.051,0.301l0.024,0.051l0.026,0.074l0.074,0.327l0.026,0.05    C246.167,369.193,246.617,369.945,247.219,370.547z M252.789,355.344c1.128,0.177,2.207,0.527,3.187,0.979    c4.013-6.472,7.575-15.655,10.41-26.818c-7.375-4.616-15.103-10.135-23.004-16.482c-7.877,6.348-15.63,11.866-22.98,16.482    c0.677,2.734,1.43,5.344,2.208,7.802c4.692,15.003,10.613,25.238,16.959,28.223v-0.1v-0.025l0.025-0.125l0,0l0.024-0.126v-0.024    v-0.1l0.026-0.025v-0.101v-0.051l0.024-0.075v-0.075l0.025-0.025l0.024-0.1v-0.026v-0.125h0.026l0.024-0.125v-0.025l0.024-0.101    v-0.024l0.026-0.101V364l0.025-0.076l0.024-0.05v-0.05l0.026-0.1l0.024-0.025l0.024-0.101v-0.025l0.025-0.101v-0.025l0.051-0.1    v-0.025l0.024-0.1l0.026-0.025l0.024-0.101v-0.05l0.025-0.051l0.026-0.074l0.024-0.051l0.024-0.075l0.025-0.05l0.026-0.076v-0.025    l0.049-0.125l0,0l0.051-0.1v-0.025l0.051-0.101v-0.025l0.049-0.075l0.025-0.051l0.026-0.075l0.025-0.05l0.024-0.05l0.026-0.075    l0.024-0.051l0.025-0.075l0.024-0.024l0.051-0.102l0.051-0.125h0.025l0.024-0.1l0.026-0.025l0.049-0.074l0.025-0.051l0.026-0.051    l0.024-0.074l0.024-0.051l0.051-0.075l0.024-0.025l0.051-0.101l0,0l0.125-0.2l0.026-0.025l0.049-0.075l0.024-0.051l0.026-0.05    l0.049-0.05l0.026-0.076l0.049-0.049l0.026-0.025l0.049-0.101v-0.025l0.075-0.075l0,0l0.076-0.101v-0.024l0.075-0.075l0.025-0.025    l0.051-0.075l0.024-0.051l0.051-0.05l0.025-0.05l0.049-0.051l0.051-0.049l0.025-0.025l0.051-0.076l0.024-0.024l0.076-0.101l0,0    l0.075-0.076v-0.024l0.076-0.075l0.024-0.025l0.051-0.074l0.049-0.025l0.026-0.051l0.049-0.05l0.051-0.05l0.051-0.051l0.024-0.025    l0.076-0.074v-0.025l0.1-0.075c2.083-2.107,4.968-3.387,8.152-3.387h0.051h0.076h0.024h0.051h0.076h0.024h0.049h0.051h0.024h0.051    h0.075h0.025l0.051,0.024h0.049h0.051h0.024h0.075h0.051l0,0h0.075l0.074,0.025l0,0h0.076l0.126,0.025h0.076h0.024h0.025    l0.075,0.025h0.026h0.049l0.126,0.023h0.074H252.789z M147.674,276.822c-0.979,1.154-1.555,2.658-1.555,4.265    c0,1.831,0.727,3.487,1.906,4.665c1.204,1.205,2.86,1.933,4.667,1.933c1.829,0,3.485-0.728,4.665-1.906    c1.028-1.054,1.706-2.409,1.881-3.964v-0.025v-0.025v-0.023l0.028-0.052v-0.05v-0.024l0,0v-0.052v-0.049l0,0v-0.051v-0.025v-0.024    v-0.025v-0.024v-0.025v-0.051v-0.025l0.024-0.023v-0.051l0,0v-0.051v-0.05v-0.075l-0.024-0.075v-0.101v-0.076v-0.074v-0.101l0,0    v-0.075l0,0l-0.028-0.074l0,0v-0.102l0,0l-0.024-0.226v-0.025l-0.025-0.075l0,0v-0.074l0,0l-0.024-0.076l0,0l-0.024-0.075l0,0    v-0.101l0,0l-0.024-0.075l0,0l-0.053-0.149l0,0l-0.049-0.227v-0.025l-0.024-0.051v-0.023l-0.025-0.076l0,0l-0.024-0.075l0,0    l-0.028-0.075l0,0c-0.323-0.928-0.853-1.756-1.555-2.459c-0.449-0.451-0.951-0.827-1.53-1.128l-0.049-0.052l0,0l-0.151-0.049l0,0    l-0.074-0.051l0,0l-0.077-0.025l0,0l-0.049-0.05h-0.024l-0.053-0.024h-0.024l-0.049-0.025h-0.024l-0.053-0.025l0,0l-0.225-0.1    h-0.024l-0.049-0.025h-0.024l-0.053-0.025h-0.024l-0.049-0.025h-0.024l-0.077-0.024l0,0l-0.074-0.025l0,0l-0.077-0.024l0,0    l-0.074-0.025l0,0h-0.077l0,0l-0.147-0.051h-0.028l-0.049-0.025h-0.025h-0.074l0,0l-0.077-0.024l0,0l-0.074-0.025l0,0h-0.077    h-0.024l-0.074-0.025l0,0h-0.077l0,0l-0.074-0.024l0,0h-0.102h-0.074l-0.077-0.025l0,0h-0.074h-0.025h-0.077l0,0h-0.074    l-0.102-0.025h-0.074h-0.077h-0.099h-0.052h-0.025h-0.024h-0.049h-0.024h-0.028h-0.049l0,0l-0.049,0.025h-0.024h-0.024h-0.077    h-0.049h-0.024h-0.025h-0.053l0,0h-0.049l-0.049,0.025l0,0h-0.053h-0.024h-0.024h-0.049l-0.053,0.024h-0.024h-0.024h-0.049h-0.024    h-0.024l-0.053,0.025l0,0h-0.049h-0.024h-0.025l-0.052,0.025l0,0h-0.049h-0.049v0.024h-0.052h-0.025h-0.024l-0.049,0.025l0,0    h-0.049l-0.028,0.025h-0.024h-0.049v0.025h-0.049h-0.025h-0.028l-0.049,0.025h-0.024h-0.024l-0.049,0.024l0,0l-0.053,0.025h-0.049    l-0.049,0.024l0,0h-0.053l-0.024,0.025l0,0l-0.049,0.025h-0.024h-0.024l-0.151,0.051l-0.052,0.023l0,0l-0.025,0.025l-0.049,0.025    l0,0h-0.049l-0.024,0.025h-0.028l-0.049,0.025l0,0l-0.025,0.024h-0.049l0,0l-0.053,0.025l-0.024,0.024h-0.025l-0.049,0.025    l-0.025,0.025h-0.028l-0.024,0.025h-0.049v0.025h-0.024l-0.049,0.023l0,0l-0.053,0.025l-0.024,0.026h-0.024l-0.049,0.024    l-0.024,0.025l-0.028,0.024h-0.024l-0.049,0.025l0,0l-0.049,0.025l-0.028,0.024l0,0l-0.049,0.025l-0.024,0.025h-0.024    l-0.024,0.025l-0.025,0.025l-0.028,0.024h-0.025l-0.024,0.025l-0.049,0.024l0,0l-0.049,0.025l0,0l-0.028,0.025l-0.049,0.025l0,0    v0.025l-0.074,0.049l-0.053,0.025l0,0l-0.049,0.051h-0.024l-0.049,0.05l0,0l-0.028,0.024l-0.024,0.025h-0.025l-0.049,0.051l0,0    l-0.025,0.025l-0.024,0.023h-0.028l-0.024,0.026v0.025l-0.049,0.024l-0.025,0.025l0,0l-0.049,0.05l0,0l-0.028,0.026l-0.024,0.023    H148.2l-0.024,0.051h-0.024l-0.024,0.025l-0.025,0.025v0.024l-0.053,0.025l0,0l-0.024,0.024L148,276.496h-0.025l-0.024,0.025    l-0.028,0.025v0.023l-0.049,0.025l0,0l-0.024,0.051l-0.025,0.025H147.8l-0.024,0.05l0,0l-0.028,0.024l-0.024,0.025v0.025    L147.674,276.822z M144.438,271.403l0.225-0.201l0.049-0.024l0,0l0.053-0.05l0.049-0.026l0.252-0.2l0.049-0.024l0.024-0.025    l0.024-0.025l0.025-0.025h0.024l0.028-0.025l0.024-0.023l0.049-0.026V270.7h0.025l0.024-0.024l0.053-0.025l0.024-0.024l0,0    l0.049-0.025l0.024-0.025l0.024-0.024l0.028-0.025h0.024l0.025-0.025l0.049-0.025l0.049-0.024v-0.025l0.077-0.025l0.049-0.024l0,0    l0.024-0.025l0.024-0.025l0.053-0.025l0.024-0.025l0,0l0.049-0.023l0.024-0.025h0.053v-0.025h0.024l0.025-0.025l0.049-0.025    l0.025-0.024l0.052-0.025l0.025-0.024h0.049l0.025-0.025l0,0l0.052-0.025l0.025-0.025l0.024-0.025h0.024l0.025-0.024l0.077-0.025    l0.024-0.025l0,0l0.049-0.024l0.074-0.05h0.028l0.074-0.025l0.049-0.05h0.028l0.099-0.051l0.024-0.025l0.053-0.024l0.074-0.025    l0,0l0.428-0.2h0.025l0.175-0.076l0.074-0.05h0.024l0.077-0.024l0.049-0.025l0.049-0.025l0.403-0.15h0.049l0.074-0.051h0.028    l0.074-0.025l0.176-0.049l0.049-0.025h0.053l0.478-0.15l0.074-0.025h0.024l0.077-0.025l0.649-0.125l0.028-0.025h0.098l0.049-0.025    h0.053l0.098-0.024l0,0l0.151-0.025h0.053l0.098-0.024l0,0h0.077l0.099-0.025l0,0h0.102h0.049h0.049l0.102-0.025l0,0h0.102    l0.074-0.025h0.024h0.102h0.024h0.074l0.102-0.025l0,0h0.099h0.053h0.049h0.102h0.024h0.074h0.077h0.024l0.099-0.024h0.052h0.049    h0.102h0.176l0.151,0.024h0.175h0.151l0,0h0.176l0,0l0.147,0.025l0,0h0.151h0.024l0.151,0.025l0,0l0.151,0.025h0.024h0.151l0,0    l0.151,0.025l0,0l0.151,0.024h0.024l0.151,0.025l0,0l0.151,0.024l0,0l0.151,0.051l0,0l0.151,0.024h0.024l0.126,0.026h0.024    l0.151,0.023l0,0l0.151,0.051l0,0l0.147,0.025l0,0l0.604,0.176l0,0c0.4,0.125,0.779,0.275,1.154,0.426h0.025l0.277,0.125l0,0    l0.274,0.126l0.024,0.025c1.281,0.603,2.46,1.454,3.489,2.458c1.505,1.531,2.636,3.412,3.236,5.52v0.025l0.049,0.15l0,0    l0.053,0.125v0.025l0.024,0.15l0,0l0.025,0.15l0,0l0.049,0.15l0,0l0.028,0.151l0,0l0.024,0.149v0.025l0.049,0.15l0,0l0.024,0.151    l0,0l0.024,0.149l0,0l0.025,0.151v0.025v0.149l0,0l0.028,0.151l0,0l0.024,0.15v0.025v0.149l0,0l0.025,0.151v0.025v0.15l0,0    l0.024,0.151v0.023v0.151v0.149v0.177v0.15v0.05v0.025v0.025v0.051v0.023v0.051v0.025v0.025v0.024v0.05l0,0v0.025v0.025v0.051    v0.023v0.026l0,0v0.05v0.025v0.024v0.052l0,0v0.023v0.025v0.025v0.05l-0.024,0.025v0.025l0,0v0.05v0.025v0.025v0.049l0,0v0.025    v0.025v0.051l0,0v0.024l-0.025,0.025v0.024v0.025v0.025v0.025v0.05v0.025l0,0v0.025v0.024l-0.024,0.05v0.026v0.025v0.023v0.025    v0.025v0.025l-0.028,0.05v0.025l0,0v0.024v0.051v0.051v0.023l-0.025,0.026v0.024v0.075v0.025l-0.024,0.201    c3.839,1.379,8.079,2.658,12.645,3.813c4.615-7.352,10.136-15.103,16.481-22.98c-6.345-7.902-11.866-15.629-16.481-23.005    c-2.86,0.753-5.594,1.53-8.205,2.333c-17.737,5.619-28.722,12.945-28.722,20.672c0,1.48,0.425,2.985,1.277,4.44    C142.831,269.471,143.561,270.45,144.438,271.403z M139.946,281.087c0-1.63,0.302-3.187,0.877-4.616    c-1.628-1.58-2.934-3.236-3.888-4.916c-1.379-2.409-2.106-4.918-2.106-7.502c0-10.712,12.645-20.069,33.039-26.543    c2.158-0.677,4.418-1.328,6.749-1.956c-1.228-2.082-2.358-4.14-3.386-6.146c-9.858-18.991-12.192-34.545-4.615-42.121    c7.577-7.578,23.131-5.244,42.121,4.615c2.032,1.028,4.064,2.158,6.173,3.387c2.281-8.605,5.015-16.082,8.051-22.102    c-1.455-1.682-2.308-3.863-2.308-6.247c0-2.685,1.079-5.093,2.835-6.849l0.225-0.2c1.732-1.657,4.064-2.659,6.625-2.659    c1.605,0,3.085,0.4,4.415,1.078c1.028-0.702,2.081-1.255,3.16-1.705l0.151-0.051c1.756-0.703,3.538-1.054,5.319-1.054    c10.737,0,20.093,12.618,26.542,33.04c0.677,2.156,1.328,4.415,1.956,6.723c2.081-1.203,4.14-2.333,6.147-3.361    c18.989-9.859,34.544-12.193,42.121-4.615c7.575,7.576,5.268,23.13-4.617,42.121c-1.027,2.006-2.156,4.063-3.361,6.146    c5.871,1.581,11.215,3.337,15.932,5.269l0.124-0.125c1.757-1.757,4.19-2.861,6.849-2.861c2.66,0,5.092,1.104,6.849,2.861    l0.101,0.1c1.707,1.756,2.76,4.14,2.76,6.748c0,0.929-0.125,1.807-0.375,2.66c2.08,1.781,3.762,3.662,4.992,5.594    c1.654,2.635,2.533,5.395,2.533,8.254c0,10.713-12.619,20.07-33.04,26.542c-2.158,0.678-4.39,1.329-6.724,1.933    c1.205,2.107,2.334,4.164,3.361,6.171c9.885,18.991,12.192,34.545,4.617,42.121c-7.577,7.576-23.132,5.243-42.121-4.616    c-2.008-1.053-4.066-2.183-6.147-3.387c-3.06,11.415-6.873,20.848-11.214,27.596c1.203,1.832,1.881,3.989,1.881,6.322    c0,3.186-1.279,6.07-3.387,8.153c-2.057,2.082-4.941,3.387-8.128,3.387c-3.185,0-6.07-1.279-8.152-3.362    c-0.753-0.777-1.406-1.605-1.908-2.559c-9.783-1.756-18.263-14.123-24.235-33.215c-0.649-2.032-1.253-4.14-1.828-6.322    c-2.109,1.229-4.142,2.357-6.173,3.387c-18.99,9.859-34.544,12.192-42.121,4.616s-5.243-23.13,4.615-42.121    c1.056-2.007,2.158-4.063,3.386-6.171c-4.215-1.13-8.177-2.359-11.816-3.664c-0.323,0.427-0.702,0.854-1.077,1.229    c-2.334,2.333-5.521,3.763-9.03,3.763c-3.513,0-6.675-1.43-8.98-3.736C141.378,287.785,139.946,284.599,139.946,281.087z     M184.527,350.604c1.604-0.603,3.387,0.2,3.987,1.78c0.604,1.581-0.2,3.362-1.779,3.964c-7.051,2.686-13.473,3.664-18.917,3.287    c-6.247-0.452-11.29-2.686-14.652-6.172c-3.236-3.361-5.517-8.303-6.145-14.324c-0.527-5.168,0.151-11.188,2.46-17.712    c0.576-1.605,2.33-2.433,3.938-1.881c1.604,0.576,2.432,2.333,1.881,3.938c-2.007,5.619-2.608,10.712-2.159,15.026    c0.478,4.592,2.134,8.279,4.468,10.688c2.306,2.408,5.97,3.964,10.637,4.29C172.837,353.814,178.382,352.961,184.527,350.604z     M234.726,255.397c-2.208,2.208-3.563,5.269-3.563,8.655s1.355,6.447,3.563,8.655c2.209,2.208,5.27,3.587,8.656,3.587    c3.386,0,6.447-1.379,8.654-3.587s3.588-5.269,3.588-8.655s-1.381-6.447-3.588-8.655s-5.268-3.587-8.654-3.587    C239.995,251.811,236.935,253.189,234.726,255.397z M224.992,264.053c0-5.068,2.059-9.684,5.394-12.995    c3.338-3.337,7.928-5.419,12.996-5.419c5.067,0,9.683,2.082,12.994,5.394c3.337,3.337,5.42,7.952,5.42,13.021    c0,5.067-2.083,9.658-5.394,12.996c-3.337,3.335-7.953,5.393-13.02,5.393c-5.068,0-9.658-2.058-12.996-5.369    C227.05,273.711,224.992,269.12,224.992,264.053z M152.591,103.069c1.155,0,2.383-0.753,2.758-1.731    c1.028-2.057-0.526-4.416-2.758-4.416h-6.17c-1.154,0-2.386,0.753-2.762,1.731c-1.028,2.058,0.526,4.416,2.762,4.416H152.591z     M177.228,103.069c1.179,0,2.383-0.753,2.783-1.731c1.028-2.057-0.551-4.416-2.783-4.416h-6.148c-1.179,0-2.383,0.753-2.783,1.731    c-1.004,2.058,0.551,4.416,2.783,4.416H177.228z M201.889,103.069c1.179,0,2.383-0.753,2.783-1.731    c1.028-2.057-0.551-4.416-2.783-4.416h-6.148c-1.179,0-2.383,0.753-2.783,1.731c-1.028,2.058,0.551,4.416,2.783,4.416H201.889z     M226.548,103.069c1.179,0,2.383-0.753,2.785-1.731c1.028-2.057-0.553-4.416-2.785-4.416h-6.171c-1.155,0-2.383,0.753-2.759,1.731    c-1.032,2.058,0.525,4.416,2.759,4.416H226.548z M251.208,103.069c1.154,0,2.384-0.753,2.76-1.731    c1.028-2.057-0.526-4.416-2.76-4.416h-6.172c-1.153,0-2.383,0.753-2.758,1.731c-1.028,2.058,0.526,4.416,2.758,4.416H251.208z     M275.869,103.069c1.154,0,2.383-0.753,2.76-1.731c1.028-2.057-0.528-4.416-2.76-4.416h-6.172c-1.154,0-2.383,0.753-2.76,1.731    c-1.028,2.058,0.528,4.416,2.76,4.416H275.869z M300.53,103.069c1.152,0,2.383-0.753,2.758-1.731    c1.028-2.057-0.526-4.416-2.758-4.416h-6.172c-1.154,0-2.385,0.753-2.784,1.731c-1.004,2.058,0.551,4.416,2.784,4.416H300.53z     M325.189,103.069c1.154,0,2.359-0.753,2.761-1.731c1.028-2.057-0.526-4.416-2.761-4.416h-6.171c-1.179,0-2.384,0.753-2.785,1.731    c-1.028,2.058,0.553,4.416,2.785,4.416H325.189z M349.826,103.069c1.18,0,2.383-0.753,2.785-1.731    c1.028-2.057-0.553-4.416-2.785-4.416h-6.146c-1.18,0-2.383,0.753-2.785,1.731c-1.027,2.058,0.553,4.416,2.785,4.416H349.826z     M121.76,96.922c-1.154,0-2.383,0.753-2.762,1.731c-1.028,2.058,0.53,4.416,2.762,4.416h6.17c1.154,0,2.383-0.753,2.762-1.731    c1.028-2.057-0.53-4.416-2.762-4.416H121.76z M152.591,119.024c1.155,0,2.383-0.753,2.758-1.731    c1.028-2.057-0.526-4.415-2.758-4.415h-6.17c-1.154,0-2.386,0.752-2.762,1.731c-1.028,2.057,0.526,4.415,2.762,4.415H152.591z     M177.228,119.024c1.179,0,2.383-0.753,2.783-1.731c1.028-2.057-0.551-4.415-2.783-4.415h-6.148c-1.179,0-2.383,0.752-2.783,1.731    c-1.004,2.057,0.551,4.415,2.783,4.415H177.228z M201.889,119.024c1.179,0,2.383-0.753,2.783-1.731    c1.028-2.057-0.551-4.415-2.783-4.415h-6.148c-1.179,0-2.383,0.752-2.783,1.731c-1.028,2.057,0.551,4.415,2.783,4.415H201.889z     M226.548,119.024c1.179,0,2.383-0.753,2.785-1.731c1.028-2.057-0.553-4.415-2.785-4.415h-6.171c-1.155,0-2.383,0.752-2.759,1.731    c-1.032,2.057,0.525,4.415,2.759,4.415H226.548z M251.208,119.024c1.154,0,2.384-0.753,2.76-1.731    c1.028-2.057-0.526-4.415-2.76-4.415h-6.172c-1.153,0-2.383,0.752-2.758,1.731c-1.028,2.057,0.526,4.415,2.758,4.415H251.208z     M275.869,119.024c1.154,0,2.383-0.753,2.76-1.731c1.028-2.057-0.528-4.415-2.76-4.415h-6.172c-1.154,0-2.383,0.752-2.76,1.731    c-1.028,2.057,0.528,4.415,2.76,4.415H275.869z M300.53,119.024c1.152,0,2.383-0.753,2.758-1.731    c1.028-2.057-0.526-4.415-2.758-4.415h-6.172c-1.154,0-2.385,0.752-2.784,1.731c-1.004,2.057,0.551,4.415,2.784,4.415H300.53z     M325.189,119.024c1.154,0,2.359-0.753,2.761-1.731c1.028-2.057-0.526-4.415-2.761-4.415h-6.171c-1.179,0-2.384,0.752-2.785,1.731    c-1.028,2.057,0.553,4.415,2.785,4.415H325.189z M349.826,119.024c1.18,0,2.383-0.753,2.785-1.731    c1.028-2.057-0.553-4.415-2.785-4.415h-6.146c-1.18,0-2.383,0.752-2.785,1.731c-1.027,2.057,0.553,4.415,2.785,4.415H349.826z     M121.76,112.878c-1.154,0-2.383,0.752-2.762,1.731c-1.028,2.057,0.53,4.415,2.762,4.415h6.17c1.154,0,2.383-0.753,2.762-1.731    c1.028-2.057-0.53-4.415-2.762-4.415H121.76z M152.591,410.16c1.155,0,2.383-0.777,2.758-1.731c1.028-2.058-0.526-4.44-2.758-4.44    h-6.17c-1.154,0-2.386,0.753-2.762,1.731c-1.028,2.058,0.526,4.44,2.762,4.44H152.591z M177.228,410.16    c1.179,0,2.383-0.777,2.783-1.731c1.028-2.058-0.551-4.44-2.783-4.44h-6.148c-1.179,0-2.383,0.753-2.783,1.731    c-1.004,2.058,0.551,4.44,2.783,4.44H177.228z M201.889,410.16c1.179,0,2.383-0.777,2.783-1.731    c1.028-2.058-0.551-4.44-2.783-4.44h-6.148c-1.179,0-2.383,0.753-2.783,1.731c-1.028,2.058,0.551,4.44,2.783,4.44H201.889z     M226.548,410.16c1.179,0,2.383-0.777,2.785-1.731c1.028-2.058-0.553-4.44-2.785-4.44h-6.171c-1.155,0-2.383,0.753-2.759,1.731    c-1.032,2.058,0.525,4.44,2.759,4.44H226.548z M251.208,410.16c1.154,0,2.384-0.777,2.76-1.731c1.028-2.058-0.526-4.44-2.76-4.44    h-6.172c-1.153,0-2.383,0.753-2.758,1.731c-1.028,2.058,0.526,4.44,2.758,4.44H251.208z M275.869,410.16    c1.154,0,2.383-0.777,2.76-1.731c1.028-2.058-0.528-4.44-2.76-4.44h-6.172c-1.154,0-2.383,0.753-2.76,1.731    c-1.028,2.058,0.528,4.44,2.76,4.44H275.869z M300.53,410.16c1.152,0,2.383-0.777,2.758-1.731c1.028-2.058-0.526-4.44-2.758-4.44    h-6.172c-1.154,0-2.385,0.753-2.784,1.731c-1.004,2.058,0.551,4.44,2.784,4.44H300.53z M325.189,410.16    c1.154,0,2.359-0.777,2.761-1.731c1.028-2.058-0.526-4.44-2.761-4.44h-6.171c-1.179,0-2.384,0.753-2.785,1.731    c-1.028,2.058,0.553,4.44,2.785,4.44H325.189z M349.826,410.16c1.18,0,2.383-0.777,2.785-1.731c1.028-2.058-0.553-4.44-2.785-4.44    h-6.146c-1.18,0-2.383,0.753-2.785,1.731c-1.027,2.058,0.553,4.44,2.785,4.44H349.826z M121.76,403.988    c-1.154,0-2.383,0.753-2.762,1.731c-1.028,2.058,0.53,4.44,2.762,4.44h6.17c1.154,0,2.383-0.777,2.762-1.731    c1.028-2.058-0.53-4.44-2.762-4.44H121.76z M152.591,426.115c1.155,0,2.383-0.777,2.758-1.731c1.028-2.082-0.526-4.44-2.758-4.44    h-6.17c-1.154,0-2.386,0.753-2.762,1.731c-1.028,2.058,0.526,4.44,2.762,4.44H152.591z M177.228,426.115    c1.179,0,2.383-0.777,2.783-1.731c1.028-2.082-0.551-4.44-2.783-4.44h-6.148c-1.179,0-2.383,0.753-2.783,1.731    c-1.004,2.058,0.551,4.44,2.783,4.44H177.228z M201.889,426.115c1.179,0,2.383-0.777,2.783-1.731    c1.028-2.082-0.551-4.44-2.783-4.44h-6.148c-1.179,0-2.383,0.753-2.783,1.731c-1.028,2.058,0.551,4.44,2.783,4.44H201.889z     M226.548,426.115c1.179,0,2.383-0.777,2.785-1.731c1.028-2.082-0.553-4.44-2.785-4.44h-6.171c-1.155,0-2.383,0.753-2.759,1.731    c-1.032,2.058,0.525,4.44,2.759,4.44H226.548z M251.208,426.115c1.154,0,2.384-0.777,2.76-1.731c1.028-2.082-0.526-4.44-2.76-4.44    h-6.172c-1.153,0-2.383,0.753-2.758,1.731c-1.028,2.058,0.526,4.44,2.758,4.44H251.208z M275.869,426.115    c1.154,0,2.383-0.777,2.76-1.731c1.028-2.082-0.528-4.44-2.76-4.44h-6.172c-1.154,0-2.383,0.753-2.76,1.731    c-1.028,2.058,0.528,4.44,2.76,4.44H275.869z M300.53,426.115c1.152,0,2.383-0.777,2.758-1.731c1.028-2.082-0.526-4.44-2.758-4.44    h-6.172c-1.154,0-2.385,0.753-2.784,1.731c-1.004,2.058,0.551,4.44,2.784,4.44H300.53z M325.189,426.115    c1.154,0,2.359-0.777,2.761-1.731c1.028-2.082-0.526-4.44-2.761-4.44h-6.171c-1.179,0-2.384,0.753-2.785,1.731    c-1.028,2.058,0.553,4.44,2.785,4.44H325.189z M349.826,426.115c1.18,0,2.383-0.777,2.785-1.731    c1.028-2.082-0.553-4.44-2.785-4.44h-6.146c-1.18,0-2.383,0.753-2.785,1.731c-1.027,2.058,0.553,4.44,2.785,4.44H349.826z     M121.76,419.943c-1.154,0-2.383,0.753-2.762,1.731c-1.028,2.058,0.53,4.44,2.762,4.44h6.17c1.154,0,2.383-0.777,2.762-1.731    c1.028-2.082-0.53-4.44-2.762-4.44H121.76z M66.391,469.466c-1.681,0-3.085-1.38-3.085-3.085c0-1.682,1.404-3.086,3.085-3.086    h271.719c1.706,0,3.088,1.404,3.088,3.086c0,1.705-1.382,3.085-3.088,3.085H66.391z M225.52,485.999    c-1.708,0-3.086-1.381-3.086-3.086c0-1.707,1.379-3.086,3.086-3.086h188.027c1.681,0,3.087,1.379,3.087,3.086    c0,1.705-1.406,3.086-3.087,3.086H225.52z M432.789,485.999c-1.705,0-3.086-1.381-3.086-3.086c0-1.707,1.381-3.086,3.086-3.086    h23.507c1.706,0,3.085,1.379,3.085,3.086c0,1.705-1.379,3.086-3.085,3.086H432.789z M55.704,485.497    c-1.706,0-3.085-1.381-3.085-3.086c0-1.706,1.379-3.086,3.085-3.086h89.085c1.706,0,3.085,1.38,3.085,3.086    c0,1.705-1.379,3.086-3.085,3.086H55.704z M91.655,36.688h279.921V26.002H74.27v400.842h14.297V78.985V39.773    C88.567,38.068,89.974,36.688,91.655,36.688z" style="fill-rule:evenodd;clip-rule:evenodd;"/></g></g><g id="Layer_1"/></svg>